<svg height="512" viewBox="0 0 64 64" width="512" xmlns="http://www.w3.org/2000/svg" xmlns:xlink="http://www.w3.org/1999/xlink"><linearGradient id="New_Gradient_Swatch_3" gradientUnits="userSpaceOnUse" x1="59" x2="59" y1="67.609" y2="-2.504"><stop offset="0" stop-color="#006df0"/><stop offset="1" stop-color="#00e7f0"/></linearGradient><linearGradient id="New_Gradient_Swatch_3-2" x1="61" x2="61" xlink:href="#New_Gradient_Swatch_3" y1="67.609" y2="-2.504"/><linearGradient id="New_Gradient_Swatch_3-4" x1="57" x2="57" xlink:href="#New_Gradient_Swatch_3" y1="67.609" y2="-2.504"/><linearGradient id="New_Gradient_Swatch_3-9" x1="5" x2="5" xlink:href="#New_Gradient_Swatch_3" y1="67.609" y2="-2.504"/><linearGradient id="New_Gradient_Swatch_3-10" x1="3" x2="3" xlink:href="#New_Gradient_Swatch_3" y1="67.609" y2="-2.504"/><linearGradient id="New_Gradient_Swatch_3-12" x1="7" x2="7" xlink:href="#New_Gradient_Swatch_3" y1="67.609" y2="-2.504"/><linearGradient id="New_Gradient_Swatch_3-17" x1="32" x2="32" xlink:href="#New_Gradient_Swatch_3" y1="67.609" y2="-2.504"/><linearGradient id="New_Gradient_Swatch_3-19" x1="27.5" x2="27.5" xlink:href="#New_Gradient_Swatch_3" y1="67.609" y2="-2.504"/><linearGradient id="New_Gradient_Swatch_3-21" x1="34" x2="34" xlink:href="#New_Gradient_Swatch_3" y1="67.609" y2="-2.504"/><linearGradient id="New_Gradient_Swatch_3-24" x1="49" x2="49" xlink:href="#New_Gradient_Swatch_3" y1="67.609" y2="-2.504"/><linearGradient id="New_Gradient_Swatch_3-25" x1="51" x2="51" xlink:href="#New_Gradient_Swatch_3" y1="67.609" y2="-2.504"/><linearGradient id="New_Gradient_Swatch_3-27" x1="47" x2="47" xlink:href="#New_Gradient_Swatch_3" y1="67.609" y2="-2.504"/><linearGradient id="New_Gradient_Swatch_3-28" x1="15" x2="15" xlink:href="#New_Gradient_Swatch_3" y1="67.609" y2="-2.504"/><linearGradient id="New_Gradient_Swatch_3-29" x1="13" x2="13" xlink:href="#New_Gradient_Swatch_3" y1="67.609" y2="-2.504"/><linearGradient id="New_Gradient_Swatch_3-31" x1="17" x2="17" xlink:href="#New_Gradient_Swatch_3" y1="67.609" y2="-2.504"/><g id="Trophy"><path d="m58 20h2v2h-2z" fill="url(#New_Gradient_Swatch_3)"/><path d="m60 22h2v2h-2z" fill="url(#New_Gradient_Swatch_3-2)"/><path d="m58 24h2v2h-2z" fill="url(#New_Gradient_Swatch_3)"/><path d="m56 22h2v2h-2z" fill="url(#New_Gradient_Swatch_3-4)"/><path d="m58 40h2v2h-2z" fill="url(#New_Gradient_Swatch_3)"/><path d="m60 38h2v2h-2z" fill="url(#New_Gradient_Swatch_3-2)"/><path d="m58 36h2v2h-2z" fill="url(#New_Gradient_Swatch_3)"/><path d="m56 38h2v2h-2z" fill="url(#New_Gradient_Swatch_3-4)"/><path d="m4 20h2v2h-2z" fill="url(#New_Gradient_Swatch_3-9)"/><path d="m2 22h2v2h-2z" fill="url(#New_Gradient_Swatch_3-10)"/><path d="m4 24h2v2h-2z" fill="url(#New_Gradient_Swatch_3-9)"/><path d="m6 22h2v2h-2z" fill="url(#New_Gradient_Swatch_3-12)"/><path d="m4 40h2v2h-2z" fill="url(#New_Gradient_Swatch_3-9)"/><path d="m2 38h2v2h-2z" fill="url(#New_Gradient_Swatch_3-10)"/><path d="m4 36h2v2h-2z" fill="url(#New_Gradient_Swatch_3-9)"/><path d="m6 38h2v2h-2z" fill="url(#New_Gradient_Swatch_3-12)"/><path d="m54 2h-44a1 1 0 0 0 -1 1v7a10.982 10.982 0 0 0 9.18 10.84 15.087 15.087 0 0 0 10.82 8.86v4.3h-1a1 1 0 0 0 -1 1v3h-1a5.017 5.017 0 0 0 -4.9 4h-2.1a1 1 0 0 0 -1 1v18a1 1 0 0 0 1 1h26a1 1 0 0 0 1-1v-18a1 1 0 0 0 -1-1h-2.1a5.017 5.017 0 0 0 -4.9-4h-1v-3a1 1 0 0 0 -1-1h-1v-4.3a15.087 15.087 0 0 0 10.82-8.86 10.982 10.982 0 0 0 9.18-10.84v-7a1 1 0 0 0 -1-1zm-36.99 13.18a6.025 6.025 0 0 1 -3.01-5.18v-3h3v8c0 .06.01.12.01.18zm-6.01-5.18v-6h6v1h-4a1 1 0 0 0 -1 1v4a8.03 8.03 0 0 0 5.22 7.47c.07.4.15.78.24 1.16a8.982 8.982 0 0 1 -6.46-8.63zm18 26h6v2h-6zm2-2v-4.05c.33.02.66.05 1 .05s.67-.03 1-.05v4.05zm13 10v16h-24v-16zm-6-4a3.014 3.014 0 0 1 2.83 2h-17.66a3.014 3.014 0 0 1 2.83-2zm7-25a13 13 0 0 1 -26 0v-11h26zm2 0v-8h3v3a6.025 6.025 0 0 1 -3.01 5.18c0-.06.01-.12.01-.18zm6-5a8.982 8.982 0 0 1 -6.46 8.63c.09-.38.17-.76.24-1.16a8.03 8.03 0 0 0 5.22-7.47v-4a1 1 0 0 0 -1-1h-4v-1h6z" fill="url(#New_Gradient_Swatch_3-17)"/><path d="m41 46h-18a1 1 0 0 0 -1 1v10a1 1 0 0 0 1 1h18a1 1 0 0 0 1-1v-10a1 1 0 0 0 -1-1zm-1 10h-16v-8h16z" fill="url(#New_Gradient_Swatch_3-17)"/><path d="m27 51h1a1 1 0 0 0 0-2h-1a1 1 0 0 0 0 2z" fill="url(#New_Gradient_Swatch_3-19)"/><path d="m27 55h1a1 1 0 0 0 0-2h-1a1 1 0 0 0 0 2z" fill="url(#New_Gradient_Swatch_3-19)"/><path d="m31 51h6a1 1 0 0 0 0-2h-6a1 1 0 0 0 0 2z" fill="url(#New_Gradient_Swatch_3-21)"/><path d="m31 55h6a1 1 0 0 0 0-2h-6a1 1 0 0 0 0 2z" fill="url(#New_Gradient_Swatch_3-21)"/><path d="m38.155 11h-3.249l-1-3.09a2 2 0 0 0 -3.8 0l-1 3.09h-3.261a2 2 0 0 0 -1.176 3.618l2.628 1.91-1 3.09a2 2 0 0 0 3.079 2.236l2.624-1.91 2.628 1.91a1.972 1.972 0 0 0 2.352 0 1.972 1.972 0 0 0 .727-2.236l-1.007-3.09 2.629-1.91a2 2 0 0 0 -1.174-3.618zm-2.629 3.91a2 2 0 0 0 -.726 2.236l1 3.09-2.628-1.909a1.994 1.994 0 0 0 -2.352 0l-2.62 1.909 1-3.09a2 2 0 0 0 -.725-2.236l-2.63-1.91h3.249a2 2 0 0 0 1.906-1.382l1-3.1v.012l1 3.09a2 2 0 0 0 1.906 1.38h3.249z" fill="url(#New_Gradient_Swatch_3-17)"/><path d="m48 29h2v2h-2z" fill="url(#New_Gradient_Swatch_3-24)"/><path d="m50 31h2v2h-2z" fill="url(#New_Gradient_Swatch_3-25)"/><path d="m48 33h2v2h-2z" fill="url(#New_Gradient_Swatch_3-24)"/><path d="m46 31h2v2h-2z" fill="url(#New_Gradient_Swatch_3-27)"/><path d="m14 29h2v2h-2z" fill="url(#New_Gradient_Swatch_3-28)"/><path d="m12 31h2v2h-2z" fill="url(#New_Gradient_Swatch_3-29)"/><path d="m14 33h2v2h-2z" fill="url(#New_Gradient_Swatch_3-28)"/><path d="m16 31h2v2h-2z" fill="url(#New_Gradient_Swatch_3-31)"/></g></svg>